<svg width="21" height="21" viewBox="0 0 21 21" fill="none" xmlns="http://www.w3.org/2000/svg">
<path d="M10 11.5C9.17157 11.5 8.5 10.8284 8.5 10C8.5 9.17157 9.17157 8.5 10 8.5C10.8284 8.5 11.5 9.17157 11.5 10C11.5 10.8284 10.8284 11.5 10 11.5Z" fill="white"/>
<path d="M0.109966 8.32L0.899965 5.8C0.985264 5.50876 1.12835 5.23767 1.32068 5.00292C1.51301 4.76817 1.75065 4.57456 2.01943 4.43364C2.2882 4.29272 2.58261 4.20737 2.88508 4.1827C3.18756 4.15802 3.4919 4.19451 3.77997 4.29L4.11997 4.4C4.38632 4.48805 4.67002 4.51039 4.94687 4.46511C5.22372 4.41984 5.48553 4.3083 5.70996 4.14L5.81996 4.06C6.03898 3.89237 6.21553 3.67562 6.33538 3.42723C6.45524 3.17884 6.51504 2.90575 6.50996 2.63V2.35C6.5051 1.72202 6.74967 1.11779 7.18996 0.67C7.39939 0.458452 7.64855 0.290362 7.92313 0.175383C8.1977 0.0604042 8.49229 0.000802192 8.78996 0H11.34C11.9518 0.00790627 12.5357 0.257192 12.9646 0.693583C13.3935 1.12997 13.6327 1.71813 13.63 2.33V2.57C13.6309 2.86027 13.697 3.14663 13.8234 3.40796C13.9497 3.6693 14.1331 3.89895 14.36 4.08L14.49 4.18C14.7406 4.36962 15.0338 4.49516 15.344 4.5457C15.6542 4.59624 15.9721 4.57025 16.27 4.47C16.5436 4.37533 16.8335 4.33715 17.1223 4.35777C17.411 4.3784 17.6926 4.4574 17.95 4.59C18.2179 4.72299 18.4556 4.90969 18.6483 5.1385C18.841 5.36731 18.9845 5.63333 19.07 5.92L19.89 8.52C20.0801 9.1062 20.0314 9.74374 19.7543 10.2942C19.4772 10.8447 18.9941 11.2636 18.41 11.46H18.25C17.9805 11.561 17.7387 11.7241 17.5441 11.9361C17.3495 12.148 17.2076 12.4029 17.13 12.68L17.07 12.84C16.9585 13.1461 16.9212 13.4743 16.9612 13.7977C17.0012 14.121 17.1173 14.4302 17.3 14.7C17.6697 15.2036 17.8257 15.8328 17.734 16.4508C17.6422 17.0688 17.3101 17.6256 16.81 18L14.74 19.57C14.348 19.855 13.8745 20.0058 13.39 20C13.2603 20.0127 13.1297 20.0127 13 20C12.6999 19.9419 12.4147 19.8233 12.162 19.6514C11.9093 19.4794 11.6942 19.2578 11.53 19L11.3 18.67C11.1386 18.4386 10.9251 18.2483 10.6767 18.1145C10.4283 17.9808 10.152 17.9073 9.86996 17.9C9.57441 17.8927 9.28182 17.9604 9.01952 18.0968C8.75722 18.2332 8.53375 18.4339 8.36996 18.68L8.24996 18.85C8.07946 19.1037 7.85883 19.3199 7.60164 19.4852C7.34445 19.6504 7.05616 19.7613 6.75451 19.8109C6.45287 19.8606 6.14425 19.848 5.84766 19.7739C5.55108 19.6997 5.2728 19.5657 5.02997 19.38L2.99997 17.86C2.51999 17.4872 2.20081 16.945 2.10784 16.3444C2.01487 15.7438 2.15517 15.1304 2.49997 14.63L2.75997 14.25C2.91631 14.0084 3.01869 13.736 3.06011 13.4512C3.10153 13.1664 3.08101 12.8761 2.99997 12.6C2.91735 12.3044 2.76401 12.0334 2.55319 11.8104C2.34237 11.5874 2.08042 11.4191 1.78997 11.32L1.58997 11.25C1.01126 11.0492 0.533298 10.6312 0.257116 10.0845C-0.0190659 9.53769 -0.0718346 8.90496 0.109966 8.32ZM9.99996 13.5C10.6922 13.5 11.3689 13.2947 11.9445 12.9101C12.52 12.5256 12.9686 11.9789 13.2335 11.3394C13.4985 10.6999 13.5678 9.99612 13.4327 9.31718C13.2977 8.63825 12.9643 8.01461 12.4748 7.52513C11.9854 7.03564 11.3617 6.7023 10.6828 6.56725C10.0038 6.4322 9.30011 6.50151 8.66057 6.76642C8.02103 7.03133 7.47441 7.47993 7.08982 8.0555C6.70524 8.63108 6.49996 9.30777 6.49996 10C6.49996 10.9283 6.86871 11.8185 7.52509 12.4749C8.18147 13.1313 9.07171 13.5 9.99996 13.5Z" fill="white"/>
</svg>
